<?xml version="1.0" encoding="UTF-8" standalone="no"?>
<!DOCTYPE svg PUBLIC "-//W3C//DTD SVG 1.1//EN" "http://www.w3.org/Graphics/SVG/1.1/DTD/svg11.dtd">
<svg width="100%" height="100%" viewBox="0 0 366 572" version="1.1" xmlns="http://www.w3.org/2000/svg" xmlns:xlink="http://www.w3.org/1999/xlink" xml:space="preserve" xmlns:serif="http://www.serif.com/" style="fill-rule:evenodd;clip-rule:evenodd;stroke-linejoin:round;stroke-miterlimit:2;">
    <g transform="matrix(1,0,0,1,-102.1,-146.2)">
        <path d="M438.1,197.2L454.4,170C439.3,157.6 418.4,149.1 392.6,149.1C336.7,149.1 294.6,191.4 294.6,246.6C294.6,302.8 337.4,341.9 389.7,341.9C411.8,341.9 427.9,334.1 438.3,323.9L442.7,338.2L467.7,338.2L467.7,238.3L392.6,238.3L392.6,267L435.6,267L435.6,290.3C428.1,301.5 412.7,309 391.3,308.8C359.4,308.6 332.2,284.5 332.2,246.8C332.2,208.4 359.4,182.1 392.3,182.1C410.4,182.1 425.5,188 438.1,197.2M168.5,275.3L199.4,210.9L229.8,275.3L168.5,275.3ZM201.3,146.2L172.4,202.6L102.1,338.3L140.3,338.3L157.1,303.3L244.9,303.3L261.4,338.3L299.3,338.3L231,202.6L201.3,146.2Z" style="fill:url(#_Linear1);fill-rule:nonzero;"/>
        <g>
            <path d="M379.6,396L379.6,366.1L217.6,366.1L217.6,396L280.9,396L280.9,549.2L316.4,549.2L316.4,396L379.6,396Z" style="fill:url(#_Linear2);fill-rule:nonzero;"/>
            <g>
                <path d="M438.1,197.2L454.4,170C439.3,157.6 418.4,149.1 392.6,149.1C336.7,149.1 294.6,191.4 294.6,246.6C294.6,302.8 337.4,341.9 389.7,341.9C411.8,341.9 427.9,334.1 438.3,323.9L442.7,338.2L467.7,338.2L467.7,238.3L392.6,238.3L392.6,267L435.6,267L435.6,290.3C428.1,301.5 412.7,309 391.3,308.8C359.4,308.6 332.2,284.5 332.2,246.8C332.2,208.4 359.4,182.1 392.3,182.1C410.4,182.1 425.4,188 438.1,197.2M170.1,273.8L201,209.4L231.4,273.8L170.1,273.8ZM201.4,147L172.5,203.4L102.2,339.1L140.4,339.1L157.2,304.1L245,304.1L261.5,339.1L299.4,339.1L231,203.4L201.4,147Z" style="fill:url(#_Linear3);fill-rule:nonzero;"/>
            </g>
            <path d="M359.9,664.6C348,677.4 331.1,685.3 312.3,685.3C276.4,685.3 249,656.2 249,620.2C249,584.3 276.4,555.1 312.3,555.1C329,555.1 344.2,561.4 355.7,571.7L375.9,546.3C358.8,531.6 336.6,522.6 312.3,522.6C258.5,522.6 214.8,566.2 214.8,620.1C214.8,673.9 258.4,717.6 312.3,717.6C338.6,717.6 362.4,707.2 379.9,690.3L359.9,664.6Z" style="fill:url(#_Linear4);fill-rule:nonzero;"/>
        </g>
    </g>
    <defs>
        <linearGradient id="_Linear1" x1="0" y1="0" x2="1" y2="0" gradientUnits="userSpaceOnUse" gradientTransform="matrix(365.717,0,0,365.717,102.094,244.032)"><stop offset="0" style="stop-color:rgb(209,209,209);stop-opacity:1"/><stop offset="0" style="stop-color:rgb(209,209,209);stop-opacity:1"/><stop offset="1" style="stop-color:rgb(140,140,140);stop-opacity:1"/></linearGradient>
        <linearGradient id="_Linear2" x1="0" y1="0" x2="1" y2="0" gradientUnits="userSpaceOnUse" gradientTransform="matrix(161.96,0,0,161.96,217.627,457.628)"><stop offset="0" style="stop-color:rgb(209,209,209);stop-opacity:1"/><stop offset="0" style="stop-color:rgb(209,209,209);stop-opacity:1"/><stop offset="1" style="stop-color:rgb(140,140,140);stop-opacity:1"/></linearGradient>
        <linearGradient id="_Linear3" x1="0" y1="0" x2="1" y2="0" gradientUnits="userSpaceOnUse" gradientTransform="matrix(365.595,0,0,365.595,102.154,244.458)"><stop offset="0" style="stop-color:rgb(209,209,209);stop-opacity:1"/><stop offset="0" style="stop-color:rgb(209,209,209);stop-opacity:1"/><stop offset="1" style="stop-color:rgb(140,140,140);stop-opacity:1"/></linearGradient>
        <linearGradient id="_Linear4" x1="0" y1="0" x2="1" y2="0" gradientUnits="userSpaceOnUse" gradientTransform="matrix(165.121,0,0,165.121,214.845,620.263)"><stop offset="0" style="stop-color:rgb(209,209,209);stop-opacity:1"/><stop offset="0" style="stop-color:rgb(209,209,209);stop-opacity:1"/><stop offset="1" style="stop-color:rgb(140,140,140);stop-opacity:1"/></linearGradient>
    </defs>
</svg>
