<?xml version="1.0" encoding="UTF-8" standalone="no"?>
<!DOCTYPE svg PUBLIC "-//W3C//DTD SVG 1.1//EN" "http://www.w3.org/Graphics/SVG/1.1/DTD/svg11.dtd">
<svg width="100%" height="100%" viewBox="0 0 383 254" version="1.1" xmlns="http://www.w3.org/2000/svg" xmlns:xlink="http://www.w3.org/1999/xlink" xml:space="preserve" xmlns:serif="http://www.serif.com/" style="fill-rule:evenodd;clip-rule:evenodd;stroke-linejoin:round;stroke-miterlimit:2;">
    <g transform="matrix(1,0,0,1,-94.4,-294)">
        <g>
            <path d="M330.9,329.6L342.4,310.4C331.8,301.7 317.1,295.7 298.9,295.7C259.5,295.7 229.9,325.5 229.9,364.3C229.9,403.8 260,431.4 296.8,431.4C312.4,431.4 323.7,425.9 331,418.7L334.1,428.8L351.7,428.8L351.7,358.4L298.8,358.4L298.8,378.6L329.1,378.6L329.1,395C323.8,402.9 313,408.2 297.9,408C275.5,407.8 256.3,390.9 256.3,364.3C256.3,337.3 275.5,318.8 298.6,318.8C311.4,319 322,323.1 330.9,329.6M142.3,383.3L164.1,338L185.5,383.4L142.3,383.4L142.3,383.3ZM164.3,294L143.9,333.7L94.4,429.2L121.3,429.2L133.1,404.6L194.9,404.6L206.5,429.2L233.2,429.2L185.1,333.7L164.3,294Z" style="fill:rgb(237,255,0);fill-rule:nonzero;"/>
        </g>
        <path d="M476.8,321.4L476.8,300.3L362.7,300.3L362.7,321.4L407.3,321.4L407.3,429.2L432.2,429.2L432.2,321.4L476.8,321.4Z" style="fill:rgb(237,255,0);fill-rule:nonzero;"/>
        <path d="M462.9,510.4C454.5,519.4 442.6,525 429.4,525C404.1,525 384.8,504.5 384.8,479.2C384.8,453.9 404.1,433.4 429.4,433.4C441.1,433.4 451.8,437.8 459.9,445.1L474.1,427.2C462.1,416.8 446.4,410.5 429.3,410.5C391.4,410.5 360.7,441.2 360.7,479.1C360.7,517 391.4,547.7 429.3,547.7C447.8,547.7 464.6,540.4 476.9,528.5L462.9,510.4Z" style="fill:rgb(237,255,0);fill-rule:nonzero;"/>
    </g>
</svg>
